<?xml version="1.0" encoding="UTF-8" standalone="no"?>
<!DOCTYPE svg PUBLIC "-//W3C//DTD SVG 1.1//EN"
 "http://www.w3.org/Graphics/SVG/1.1/DTD/svg11.dtd">
<!-- Generated by graphviz version 12.2.1 (20241206.2353)
 -->
<!-- Title: CRISPRArchitect_Pipeline Pages: 1 -->
<svg width="1871pt" height="3600pt"
 viewBox="0.00 0.00 673.59 1296.00" xmlns="http://www.w3.org/2000/svg" xmlns:xlink="http://www.w3.org/1999/xlink">
<g id="graph0" class="graph" transform="scale(2.47499 2.47499) rotate(0) translate(36 1418.55)">
<title>CRISPRArchitect_Pipeline</title>
<polygon fill="#1b2838" stroke="none" points="-36,36 -36,-1418.55 720,-1418.55 720,36 -36,36"/>
<text text-anchor="start" x="177.75" y="-1353.75" font-family="Helvetica,sans-Serif" font-weight="bold" font-size="24.00" fill="#ffffff">CRISPRArchitect v3 Pipeline</text>
<text text-anchor="start" x="207" y="-1334.5" font-family="Helvetica,sans-Serif" font-size="14.00" fill="#1b9e77">End&#45;to&#45;End Genome Editing Strategy Design</text>
<g id="clust1" class="cluster">
<title>cluster_feasibility</title>
<path fill="#131c28" stroke="#d95f02" stroke-width="1.5" stroke-dasharray="5,2" d="M20,-492.6C20,-492.6 664,-492.6 664,-492.6 670,-492.6 676,-498.6 676,-504.6 676,-504.6 676,-603.75 676,-603.75 676,-609.75 670,-615.75 664,-615.75 664,-615.75 20,-615.75 20,-615.75 14,-615.75 8,-609.75 8,-603.75 8,-603.75 8,-504.6 8,-504.6 8,-498.6 14,-492.6 20,-492.6"/>
<text text-anchor="start" x="214.5" y="-597.4" font-family="Helvetica,sans-Serif" font-weight="bold" font-size="13.00" fill="#d95f02">7. Multi&#45;Modality Feasibility Assessment</text>
</g>
<g id="clust2" class="cluster">
<title>cluster_validation</title>
<path fill="#131c28" stroke="#1b9e77" stroke-width="1.5" stroke-dasharray="5,2" d="M112,-107.4C112,-107.4 564,-107.4 564,-107.4 570,-107.4 576,-113.4 576,-119.4 576,-119.4 576,-202.8 576,-202.8 576,-208.8 570,-214.8 564,-214.8 564,-214.8 112,-214.8 112,-214.8 106,-214.8 100,-208.8 100,-202.8 100,-202.8 100,-119.4 100,-119.4 100,-113.4 106,-107.4 112,-107.4"/>
<text text-anchor="start" x="254.75" y="-196.45" font-family="Helvetica,sans-Serif" font-weight="bold" font-size="13.00" fill="#1b9e77">10. Robustness Validation</text>
</g>
<!-- input -->
<g id="node1" class="node">
<title>input</title>
<path fill="#ffc107" stroke="#ffc107" stroke-width="1.5" d="M433.43,-1326.8C433.43,-1326.8 230.57,-1326.8 230.57,-1326.8 224.57,-1326.8 218.57,-1320.8 218.57,-1314.8 218.57,-1314.8 218.57,-1285.65 218.57,-1285.65 218.57,-1279.65 224.57,-1273.65 230.57,-1273.65 230.57,-1273.65 433.43,-1273.65 433.43,-1273.65 439.43,-1273.65 445.43,-1279.65 445.43,-1285.65 445.43,-1285.65 445.43,-1314.8 445.43,-1314.8 445.43,-1320.8 439.43,-1326.8 433.43,-1326.8"/>
<text text-anchor="start" x="311.75" y="-1303.25" font-family="Helvetica,sans-Serif" font-weight="bold" font-size="13.00" fill="#1b2838">INPUT</text>
<text text-anchor="start" x="233.38" y="-1286.6" font-family="Helvetica,sans-Serif" font-size="10.00" fill="#1b2838">Genomic coordinates / HGVS / ClinVar batch</text>
</g>
<!-- s1 -->
<g id="node2" class="node">
<title>s1</title>
<path fill="#233448" stroke="#1b9e77" stroke-width="1.5" d="M436.43,-1228.65C436.43,-1228.65 227.57,-1228.65 227.57,-1228.65 221.57,-1228.65 215.57,-1222.65 215.57,-1216.65 215.57,-1216.65 215.57,-1189.75 215.57,-1189.75 215.57,-1183.75 221.57,-1177.75 227.57,-1177.75 227.57,-1177.75 436.43,-1177.75 436.43,-1177.75 442.43,-1177.75 448.43,-1183.75 448.43,-1189.75 448.43,-1189.75 448.43,-1216.65 448.43,-1216.65 448.43,-1222.65 442.43,-1228.65 436.43,-1228.65"/>
<text text-anchor="start" x="282.5" y="-1206.05" font-family="Helvetica,sans-Serif" font-weight="bold" font-size="12.00" fill="#ffffff">1. Variant Parsing</text>
<text text-anchor="start" x="230.38" y="-1190.15" font-family="Helvetica,sans-Serif" font-size="9.00" fill="#cccccc">HGVS parser · ClinVar TSV/VCF · coordinate input</text>
</g>
<!-- input&#45;&gt;s1 -->
<g id="edge1" class="edge">
<title>input&#45;&gt;s1</title>
<path fill="none" stroke="#1b9e77" stroke-width="1.5" d="M332,-1273.26C332,-1262.66 332,-1250.24 332,-1238.88"/>
<polygon fill="#1b9e77" stroke="#1b9e77" stroke-width="1.5" points="334.8,-1239.1 332,-1231.1 329.2,-1239.1 334.8,-1239.1"/>
</g>
<!-- s2 -->
<g id="node3" class="node">
<title>s2</title>
<path fill="#233448" stroke="#1b9e77" stroke-width="1.5" d="M438.68,-1132.75C438.68,-1132.75 225.32,-1132.75 225.32,-1132.75 219.32,-1132.75 213.32,-1126.75 213.32,-1120.75 213.32,-1120.75 213.32,-1093.85 213.32,-1093.85 213.32,-1087.85 219.32,-1081.85 225.32,-1081.85 225.32,-1081.85 438.68,-1081.85 438.68,-1081.85 444.68,-1081.85 450.68,-1087.85 450.68,-1093.85 450.68,-1093.85 450.68,-1120.75 450.68,-1120.75 450.68,-1126.75 444.68,-1132.75 438.68,-1132.75"/>
<text text-anchor="start" x="279.12" y="-1110.15" font-family="Helvetica,sans-Serif" font-weight="bold" font-size="12.00" fill="#ffffff">2. Transcript Fetch</text>
<text text-anchor="start" x="228.12" y="-1094.25" font-family="Helvetica,sans-Serif" font-size="9.00" fill="#cccccc">Ensembl REST API · GRCh38 · canonical transcript</text>
</g>
<!-- s1&#45;&gt;s2 -->
<g id="edge2" class="edge">
<title>s1&#45;&gt;s2</title>
<path fill="none" stroke="#1b9e77" stroke-width="1.5" d="M332,-1177.53C332,-1167.05 332,-1154.63 332,-1143.23"/>
<polygon fill="#1b9e77" stroke="#1b9e77" stroke-width="1.5" points="334.8,-1143.4 332,-1135.4 329.2,-1143.4 334.8,-1143.4"/>
</g>
<!-- s3 -->
<g id="node4" class="node">
<title>s3</title>
<path fill="#233448" stroke="#1b9e77" stroke-width="1.5" d="M449.55,-1036.85C449.55,-1036.85 214.45,-1036.85 214.45,-1036.85 208.45,-1036.85 202.45,-1030.85 202.45,-1024.85 202.45,-1024.85 202.45,-996.45 202.45,-996.45 202.45,-990.45 208.45,-984.45 214.45,-984.45 214.45,-984.45 449.55,-984.45 449.55,-984.45 455.55,-984.45 461.55,-990.45 461.55,-996.45 461.55,-996.45 461.55,-1024.85 461.55,-1024.85 461.55,-1030.85 455.55,-1036.85 449.55,-1036.85"/>
<text text-anchor="start" x="267.5" y="-1014.25" font-family="Helvetica,sans-Serif" font-weight="bold" font-size="12.00" fill="#ffffff">3. Coordinate Mapping</text>
<text text-anchor="start" x="217.25" y="-998.35" font-family="Helvetica,sans-Serif" font-size="9.00" fill="#cccccc">Genomic → CDS · exon/codon position · strand handling</text>
</g>
<!-- s2&#45;&gt;s3 -->
<g id="edge3" class="edge">
<title>s2&#45;&gt;s3</title>
<path fill="none" stroke="#1b9e77" stroke-width="1.5" d="M332,-1081.43C332,-1071.03 332,-1058.75 332,-1047.41"/>
<polygon fill="#1b9e77" stroke="#1b9e77" stroke-width="1.5" points="334.8,-1047.61 332,-1039.61 329.2,-1047.61 334.8,-1047.61"/>
</g>
<!-- s4 -->
<g id="node5" class="node">
<title>s4</title>
<path fill="#233448" stroke="#1b9e77" stroke-width="1.5" d="M457.8,-939.45C457.8,-939.45 206.2,-939.45 206.2,-939.45 200.2,-939.45 194.2,-933.45 194.2,-927.45 194.2,-927.45 194.2,-884.8 194.2,-884.8 194.2,-878.8 200.2,-872.8 206.2,-872.8 206.2,-872.8 457.8,-872.8 457.8,-872.8 463.8,-872.8 469.8,-878.8 469.8,-884.8 469.8,-884.8 469.8,-927.45 469.8,-927.45 469.8,-933.45 463.8,-939.45 457.8,-939.45"/>
<text text-anchor="start" x="258.88" y="-916.85" font-family="Helvetica,sans-Serif" font-weight="bold" font-size="12.00" fill="#ffffff">4. Validation &amp; Annotation</text>
<text text-anchor="start" x="209" y="-900.95" font-family="Helvetica,sans-Serif" font-size="9.00" fill="#cccccc">Reference allele check · consequence classification (ACMG)</text>
<text text-anchor="start" x="244.25" y="-885.2" font-family="Helvetica,sans-Serif" font-size="9.00" fill="#cccccc">Missense · nonsense · splice · synonymous</text>
</g>
<!-- s3&#45;&gt;s4 -->
<g id="edge4" class="edge">
<title>s3&#45;&gt;s4</title>
<path fill="none" stroke="#1b9e77" stroke-width="1.5" d="M332,-984.04C332,-973.68 332,-961.42 332,-949.78"/>
<polygon fill="#1b9e77" stroke="#1b9e77" stroke-width="1.5" points="334.8,-950.04 332,-942.04 329.2,-950.04 334.8,-950.04"/>
</g>
<!-- s5 -->
<g id="node6" class="node">
<title>s5</title>
<path fill="#233448" stroke="#1b9e77" stroke-width="1.5" d="M438.68,-827.8C438.68,-827.8 225.32,-827.8 225.32,-827.8 219.32,-827.8 213.32,-821.8 213.32,-815.8 213.32,-815.8 213.32,-788.9 213.32,-788.9 213.32,-782.9 219.32,-776.9 225.32,-776.9 225.32,-776.9 438.68,-776.9 438.68,-776.9 444.68,-776.9 450.68,-782.9 450.68,-788.9 450.68,-788.9 450.68,-815.8 450.68,-815.8 450.68,-821.8 444.68,-827.8 438.68,-827.8"/>
<text text-anchor="start" x="265.25" y="-805.2" font-family="Helvetica,sans-Serif" font-weight="bold" font-size="12.00" fill="#ffffff">5. Variant Normalization</text>
<text text-anchor="start" x="228.12" y="-789.3" font-family="Helvetica,sans-Serif" font-size="9.00" fill="#cccccc">NormalizedVariant object · local sequence ±200 bp</text>
</g>
<!-- s4&#45;&gt;s5 -->
<g id="edge5" class="edge">
<title>s4&#45;&gt;s5</title>
<path fill="none" stroke="#1b9e77" stroke-width="1.5" d="M332,-872.36C332,-861.44 332,-849.24 332,-838.17"/>
<polygon fill="#1b9e77" stroke="#1b9e77" stroke-width="1.5" points="334.8,-838.25 332,-830.25 329.2,-838.25 334.8,-838.25"/>
</g>
<!-- s6 -->
<g id="node7" class="node">
<title>s6</title>
<path fill="#233448" stroke="#d95f02" stroke-width="1.5" d="M466.05,-731.9C466.05,-731.9 197.95,-731.9 197.95,-731.9 191.95,-731.9 185.95,-725.9 185.95,-719.9 185.95,-719.9 185.95,-677.25 185.95,-677.25 185.95,-671.25 191.95,-665.25 197.95,-665.25 197.95,-665.25 466.05,-665.25 466.05,-665.25 472.05,-665.25 478.05,-671.25 478.05,-677.25 478.05,-677.25 478.05,-719.9 478.05,-719.9 478.05,-725.9 472.05,-731.9 466.05,-731.9"/>
<text text-anchor="start" x="253.25" y="-709.3" font-family="Helvetica,sans-Serif" font-weight="bold" font-size="12.00" fill="#d95f02">6. Multi&#45;Nuclease PAM Scan</text>
<text text-anchor="start" x="200.75" y="-693.4" font-family="Helvetica,sans-Serif" font-size="9.00" fill="#cccccc">5 nucleases: SpCas9 · enFnCas9 · SpCas9&#45;NG · SpRY · Cas12a</text>
<text text-anchor="start" x="236.38" y="-677.65" font-family="Helvetica,sans-Serif" font-size="9.00" fill="#cccccc">GC filter · poly&#45;T filter · composite guide scoring</text>
</g>
<!-- s5&#45;&gt;s6 -->
<g id="edge6" class="edge">
<title>s5&#45;&gt;s6</title>
<path fill="none" stroke="#1b9e77" stroke-width="1.5" d="M332,-776.45C332,-766.17 332,-753.94 332,-742.3"/>
<polygon fill="#1b9e77" stroke="#1b9e77" stroke-width="1.5" points="334.8,-742.56 332,-734.56 329.2,-742.56 334.8,-742.56"/>
</g>
<!-- be -->
<g id="node8" class="node">
<title>be</title>
<path fill="#233448" stroke="#1b9e77" stroke-width="1.5" d="M194.05,-582.25C194.05,-582.25 27.95,-582.25 27.95,-582.25 21.95,-582.25 15.95,-576.25 15.95,-570.25 15.95,-570.25 15.95,-512.6 15.95,-512.6 15.95,-506.6 21.95,-500.6 27.95,-500.6 27.95,-500.6 194.05,-500.6 194.05,-500.6 200.05,-500.6 206.05,-506.6 206.05,-512.6 206.05,-512.6 206.05,-570.25 206.05,-570.25 206.05,-576.25 200.05,-582.25 194.05,-582.25"/>
<text text-anchor="start" x="77.62" y="-560.6" font-family="Helvetica,sans-Serif" font-weight="bold" font-size="11.00" fill="#1b9e77">Base Editing</text>
<text text-anchor="start" x="40.12" y="-544.5" font-family="Helvetica,sans-Serif" font-size="9.00" fill="#cccccc">9 editor profiles (3 Tier A + 6 Tier B)</text>
<text text-anchor="start" x="35.25" y="-528.75" font-family="Helvetica,sans-Serif" font-size="9.00" fill="#cccccc">ABE7.10 · ABE8e · BE4max + fusions</text>
<text text-anchor="start" x="30.75" y="-513" font-family="Helvetica,sans-Serif" font-size="9.00" fill="#cccccc">Window check · bystander identification</text>
</g>
<!-- s6&#45;&gt;be -->
<g id="edge7" class="edge">
<title>s6&#45;&gt;be</title>
<path fill="none" stroke="#1b9e77" stroke-width="1.5" d="M285.4,-664.86C253.75,-642.64 211.43,-612.93 176.41,-588.35"/>
<polygon fill="#1b9e77" stroke="#1b9e77" stroke-width="1.5" points="178.15,-586.15 170,-583.84 174.94,-590.73 178.15,-586.15"/>
<text text-anchor="middle" x="276.71" y="-634.7" font-family="Helvetica,sans-Serif" font-size="9.00" fill="#cccccc"> &#160;guide</text>
<text text-anchor="middle" x="276.71" y="-624.95" font-family="Helvetica,sans-Serif" font-size="9.00" fill="#cccccc">candidates</text>
</g>
<!-- pe -->
<g id="node9" class="node">
<title>pe</title>
<path fill="#233448" stroke="#d95f02" stroke-width="1.5" d="M410.18,-574.38C410.18,-574.38 253.82,-574.38 253.82,-574.38 247.82,-574.38 241.82,-568.38 241.82,-562.38 241.82,-562.38 241.82,-520.48 241.82,-520.48 241.82,-514.47 247.82,-508.47 253.82,-508.47 253.82,-508.47 410.18,-508.47 410.18,-508.47 416.18,-508.47 422.18,-514.48 422.18,-520.48 422.18,-520.48 422.18,-562.38 422.18,-562.38 422.18,-568.38 416.18,-574.38 410.18,-574.38"/>
<text text-anchor="start" x="296.38" y="-552.72" font-family="Helvetica,sans-Serif" font-weight="bold" font-size="11.00" fill="#d95f02">Prime Editing</text>
<text text-anchor="start" x="256.62" y="-536.62" font-family="Helvetica,sans-Serif" font-size="9.00" fill="#cccccc">pegRNA design (PBS + RT template)</text>
<text text-anchor="start" x="279.88" y="-520.88" font-family="Helvetica,sans-Serif" font-size="9.00" fill="#cccccc">PE3 nicking guide search</text>
</g>
<!-- s6&#45;&gt;pe -->
<g id="edge8" class="edge">
<title>s6&#45;&gt;pe</title>
<path fill="none" stroke="#1b9e77" stroke-width="1.5" d="M332,-665.05C332,-641.7 332,-610.01 332,-584.7"/>
<polygon fill="#1b9e77" stroke="#1b9e77" stroke-width="1.5" points="334.8,-584.91 332,-576.91 329.2,-584.91 334.8,-584.91"/>
<text text-anchor="middle" x="354.5" y="-634.7" font-family="Helvetica,sans-Serif" font-size="9.00" fill="#cccccc"> &#160;guide</text>
<text text-anchor="middle" x="354.5" y="-624.95" font-family="Helvetica,sans-Serif" font-size="9.00" fill="#cccccc">candidates</text>
</g>
<!-- hdr -->
<g id="node10" class="node">
<title>hdr</title>
<path fill="#233448" stroke="#ffc107" stroke-width="1.5" d="M656.17,-582.25C656.17,-582.25 469.82,-582.25 469.82,-582.25 463.82,-582.25 457.82,-576.25 457.82,-570.25 457.82,-570.25 457.82,-512.6 457.82,-512.6 457.82,-506.6 463.82,-500.6 469.82,-500.6 469.82,-500.6 656.17,-500.6 656.17,-500.6 662.17,-500.6 668.17,-506.6 668.17,-512.6 668.17,-512.6 668.17,-570.25 668.17,-570.25 668.17,-576.25 662.17,-582.25 656.17,-582.25"/>
<text text-anchor="start" x="530.75" y="-560.6" font-family="Helvetica,sans-Serif" font-weight="bold" font-size="11.00" fill="#ffc107">HDR Design</text>
<text text-anchor="start" x="472.62" y="-544.5" font-family="Helvetica,sans-Serif" font-size="9.00" fill="#cccccc">Donor type: dsDNA · lssDNA · cssDNA · AAV</text>
<text text-anchor="start" x="482.38" y="-528.75" font-family="Helvetica,sans-Serif" font-size="9.00" fill="#cccccc">ConversionSim Monte Carlo (10K sims)</text>
<text text-anchor="start" x="487.62" y="-513" font-family="Helvetica,sans-Serif" font-size="9.00" fill="#cccccc">Cut&#45;to&#45;edit distance · HA optimization</text>
</g>
<!-- s6&#45;&gt;hdr -->
<g id="edge9" class="edge">
<title>s6&#45;&gt;hdr</title>
<path fill="none" stroke="#1b9e77" stroke-width="1.5" d="M380.71,-664.86C413.93,-642.54 458.4,-612.68 495.09,-588.04"/>
<polygon fill="#1b9e77" stroke="#1b9e77" stroke-width="1.5" points="496.31,-590.59 501.39,-583.8 493.19,-585.94 496.31,-590.59"/>
<text text-anchor="middle" x="463.07" y="-634.7" font-family="Helvetica,sans-Serif" font-size="9.00" fill="#cccccc"> &#160;guide</text>
<text text-anchor="middle" x="463.07" y="-624.95" font-family="Helvetica,sans-Serif" font-size="9.00" fill="#cccccc">candidates</text>
</g>
<!-- s8 -->
<g id="node11" class="node">
<title>s8</title>
<path fill="#233448" stroke="#1b9e77" stroke-width="1.5" d="M433.43,-455.6C433.43,-455.6 230.57,-455.6 230.57,-455.6 224.57,-455.6 218.57,-449.6 218.57,-443.6 218.57,-443.6 218.57,-385.2 218.57,-385.2 218.57,-379.2 224.57,-373.2 230.57,-373.2 230.57,-373.2 433.43,-373.2 433.43,-373.2 439.43,-373.2 445.43,-379.2 445.43,-385.2 445.43,-385.2 445.43,-443.6 445.43,-443.6 445.43,-449.6 439.43,-455.6 433.43,-455.6"/>
<text text-anchor="start" x="268.62" y="-433" font-family="Helvetica,sans-Serif" font-weight="bold" font-size="12.00" fill="#ffffff">8. Strategy Generation</text>
<text text-anchor="start" x="251.75" y="-417.1" font-family="Helvetica,sans-Serif" font-size="9.00" fill="#cccccc">Single&#45;step · dual · hybrid combinations</text>
<text text-anchor="start" x="233.38" y="-401.35" font-family="Helvetica,sans-Serif" font-size="9.00" fill="#cccccc">BE+PE · BE+HDR · PE+HDR · dual&#45;BE · dual&#45;PE</text>
<text text-anchor="start" x="250.25" y="-385.6" font-family="Helvetica,sans-Serif" font-size="9.00" fill="#cccccc">Rejected strategies tagged with reasons</text>
</g>
<!-- be&#45;&gt;s8 -->
<g id="edge10" class="edge">
<title>be&#45;&gt;s8</title>
<path fill="none" stroke="#1b9e77" stroke-width="1.5" d="M182.14,-500.18C204.2,-487.7 228.66,-473.86 251.32,-461.04"/>
<polygon fill="#1b9e77" stroke="#1b9e77" stroke-width="1.5" points="252.67,-463.49 258.26,-457.12 249.92,-458.62 252.67,-463.49"/>
</g>
<!-- pe&#45;&gt;s8 -->
<g id="edge11" class="edge">
<title>pe&#45;&gt;s8</title>
<path fill="none" stroke="#1b9e77" stroke-width="1.5" d="M332,-508.23C332,-495.42 332,-480.37 332,-466.16"/>
<polygon fill="#1b9e77" stroke="#1b9e77" stroke-width="1.5" points="334.8,-466.28 332,-458.28 329.2,-466.28 334.8,-466.28"/>
</g>
<!-- hdr&#45;&gt;s8 -->
<g id="edge12" class="edge">
<title>hdr&#45;&gt;s8</title>
<path fill="none" stroke="#1b9e77" stroke-width="1.5" d="M488.64,-500.18C465.48,-487.65 439.79,-473.74 416.02,-460.87"/>
<polygon fill="#1b9e77" stroke="#1b9e77" stroke-width="1.5" points="417.38,-458.43 409.01,-457.08 414.71,-463.35 417.38,-458.43"/>
</g>
<!-- s9 -->
<g id="node12" class="node">
<title>s9</title>
<path fill="#233448" stroke="#d95f02" stroke-width="1.5" d="M442.43,-328.2C442.43,-328.2 221.57,-328.2 221.57,-328.2 215.57,-328.2 209.57,-322.2 209.57,-316.2 209.57,-316.2 209.57,-257.8 209.57,-257.8 209.57,-251.8 215.57,-245.8 221.57,-245.8 221.57,-245.8 442.43,-245.8 442.43,-245.8 448.43,-245.8 454.43,-251.8 454.43,-257.8 454.43,-257.8 454.43,-316.2 454.43,-316.2 454.43,-322.2 448.43,-328.2 442.43,-328.2"/>
<text text-anchor="start" x="231.12" y="-305.6" font-family="Helvetica,sans-Serif" font-weight="bold" font-size="12.00" fill="#d95f02">9. TOPSIS 6D Multi&#45;Criteria Ranking</text>
<text text-anchor="start" x="229.62" y="-289.7" font-family="Helvetica,sans-Serif" font-size="9.00" fill="#cccccc">Safety (0.28) · Feasibility (0.23) · Complexity (0.19)</text>
<text text-anchor="start" x="224.38" y="-273.95" font-family="Helvetica,sans-Serif" font-size="9.00" fill="#cccccc">Risk (0.14) · Confidence (0.09) · Consequence (0.07)</text>
<text text-anchor="start" x="289.25" y="-258.2" font-family="Helvetica,sans-Serif" font-size="9.00" fill="#cccccc">Hwang &amp; Yoon, 1981</text>
</g>
<!-- s8&#45;&gt;s9 -->
<g id="edge13" class="edge">
<title>s8&#45;&gt;s9</title>
<path fill="none" stroke="#1b9e77" stroke-width="1.5" d="M332,-373.03C332,-361.96 332,-349.81 332,-338.26"/>
<polygon fill="#1b9e77" stroke="#1b9e77" stroke-width="1.5" points="334.8,-338.56 332,-330.56 329.2,-338.56 334.8,-338.56"/>
</g>
<!-- pareto -->
<g id="node13" class="node">
<title>pareto</title>
<path fill="#233448" stroke="#1b9e77" stroke-width="1.5" d="M208.43,-181.3C208.43,-181.3 119.58,-181.3 119.58,-181.3 113.58,-181.3 107.58,-175.3 107.58,-169.3 107.58,-169.3 107.58,-127.4 107.58,-127.4 107.58,-121.4 113.58,-115.4 119.58,-115.4 119.58,-115.4 208.43,-115.4 208.43,-115.4 214.43,-115.4 220.43,-121.4 220.43,-127.4 220.43,-127.4 220.43,-169.3 220.43,-169.3 220.43,-175.3 214.43,-181.3 208.43,-181.3"/>
<text text-anchor="start" x="131" y="-159.65" font-family="Helvetica,sans-Serif" font-weight="bold" font-size="11.00" fill="#1b9e77">Pareto Front</text>
<text text-anchor="start" x="122.38" y="-143.55" font-family="Helvetica,sans-Serif" font-size="9.00" fill="#cccccc">Weight&#45;independent</text>
<text text-anchor="start" x="123.12" y="-127.8" font-family="Helvetica,sans-Serif" font-size="9.00" fill="#cccccc">dominance analysis</text>
</g>
<!-- s9&#45;&gt;pareto -->
<g id="edge14" class="edge">
<title>s9&#45;&gt;pareto</title>
<path fill="none" stroke="#1b9e77" stroke-width="1.5" d="M277.27,-245.65C264.25,-235.75 250.51,-225.05 238,-214.8 227.74,-206.4 216.93,-197.11 206.84,-188.22"/>
<polygon fill="#1b9e77" stroke="#1b9e77" stroke-width="1.5" points="208.83,-186.24 200.98,-183.04 205.12,-190.44 208.83,-186.24"/>
</g>
<!-- sensitivity -->
<g id="node14" class="node">
<title>sensitivity</title>
<path fill="#233448" stroke="#d95f02" stroke-width="1.5" d="M395.55,-181.3C395.55,-181.3 268.45,-181.3 268.45,-181.3 262.45,-181.3 256.45,-175.3 256.45,-169.3 256.45,-169.3 256.45,-127.4 256.45,-127.4 256.45,-121.4 262.45,-115.4 268.45,-115.4 268.45,-115.4 395.55,-115.4 395.55,-115.4 401.55,-115.4 407.55,-121.4 407.55,-127.4 407.55,-127.4 407.55,-169.3 407.55,-169.3 407.55,-175.3 401.55,-181.3 395.55,-181.3"/>
<text text-anchor="start" x="271.25" y="-159.65" font-family="Helvetica,sans-Serif" font-weight="bold" font-size="11.00" fill="#d95f02">Monte Carlo Sensitivity</text>
<text text-anchor="start" x="285.12" y="-143.55" font-family="Helvetica,sans-Serif" font-size="9.00" fill="#cccccc">10,000 Dirichlet weight</text>
<text text-anchor="start" x="276.5" y="-127.8" font-family="Helvetica,sans-Serif" font-size="9.00" fill="#cccccc">permutations · rank stability</text>
</g>
<!-- s9&#45;&gt;sensitivity -->
<g id="edge15" class="edge">
<title>s9&#45;&gt;sensitivity</title>
<path fill="none" stroke="#1b9e77" stroke-width="1.5" d="M332,-245.37C332,-228.27 332,-208.39 332,-191.16"/>
<polygon fill="#1b9e77" stroke="#1b9e77" stroke-width="1.5" points="334.8,-191.64 332,-183.64 329.2,-191.64 334.8,-191.64"/>
</g>
<!-- crossmethod -->
<g id="node15" class="node">
<title>crossmethod</title>
<path fill="#233448" stroke="#ffc107" stroke-width="1.5" d="M556.42,-181.3C556.42,-181.3 455.57,-181.3 455.57,-181.3 449.57,-181.3 443.57,-175.3 443.57,-169.3 443.57,-169.3 443.57,-127.4 443.57,-127.4 443.57,-121.4 449.57,-115.4 455.57,-115.4 455.57,-115.4 556.42,-115.4 556.42,-115.4 562.42,-115.4 568.42,-121.4 568.42,-127.4 568.42,-127.4 568.42,-169.3 568.42,-169.3 568.42,-175.3 562.42,-181.3 556.42,-181.3"/>
<text text-anchor="start" x="468.88" y="-159.65" font-family="Helvetica,sans-Serif" font-weight="bold" font-size="11.00" fill="#ffc107">Cross&#45;Method</text>
<text text-anchor="start" x="458.38" y="-143.55" font-family="Helvetica,sans-Serif" font-size="9.00" fill="#cccccc">TOPSIS · VIKOR · WPM</text>
<text text-anchor="start" x="466.25" y="-127.8" font-family="Helvetica,sans-Serif" font-size="9.00" fill="#cccccc">100% concordance</text>
</g>
<!-- s9&#45;&gt;crossmethod -->
<g id="edge16" class="edge">
<title>s9&#45;&gt;crossmethod</title>
<path fill="none" stroke="#1b9e77" stroke-width="1.5" d="M386.45,-245.3C399.48,-235.42 413.29,-224.8 426,-214.8 436.89,-206.22 448.49,-196.86 459.39,-187.97"/>
<polygon fill="#1b9e77" stroke="#1b9e77" stroke-width="1.5" points="461,-190.27 465.42,-183.04 457.45,-185.94 461,-190.27"/>
</g>
<!-- output -->
<g id="node16" class="node">
<title>output</title>
<path fill="#2ecc71" stroke="#2ecc71" stroke-width="1.5" d="M448.05,-70.4C448.05,-70.4 215.95,-70.4 215.95,-70.4 209.95,-70.4 203.95,-64.4 203.95,-58.4 203.95,-58.4 203.95,-12 203.95,-12 203.95,-6 209.95,0 215.95,0 215.95,0 448.05,0 448.05,0 454.05,0 460.05,-6 460.05,-12 460.05,-12 460.05,-58.4 460.05,-58.4 460.05,-64.4 454.05,-70.4 448.05,-70.4"/>
<text text-anchor="start" x="224.38" y="-46.85" font-family="Helvetica,sans-Serif" font-weight="bold" font-size="13.00" fill="#1b2838">OUTPUT: Ranked Strategy Report</text>
<text text-anchor="start" x="231.5" y="-30.2" font-family="Helvetica,sans-Serif" font-size="10.00" fill="#1b2838">TOPSIS scores · rank stability · Pareto status</text>
<text text-anchor="start" x="218.75" y="-12.95" font-family="Helvetica,sans-Serif" font-size="10.00" fill="#1b2838">rejection reasons · parameter provenance · CIs/SEs</text>
</g>
<!-- pareto&#45;&gt;output -->
<g id="edge17" class="edge">
<title>pareto&#45;&gt;output</title>
<path fill="none" stroke="#1b9e77" stroke-width="1.5" d="M213.04,-114.9C231.27,-102.85 252.16,-89.02 271.3,-76.36"/>
<polygon fill="#1b9e77" stroke="#1b9e77" stroke-width="1.5" points="272.65,-78.82 277.78,-72.07 269.56,-74.15 272.65,-78.82"/>
</g>
<!-- sensitivity&#45;&gt;output -->
<g id="edge18" class="edge">
<title>sensitivity&#45;&gt;output</title>
<path fill="none" stroke="#1b9e77" stroke-width="1.5" d="M332,-114.9C332,-104.31 332,-92.34 332,-81"/>
<polygon fill="#1b9e77" stroke="#1b9e77" stroke-width="1.5" points="334.8,-81.09 332,-73.09 329.2,-81.09 334.8,-81.09"/>
</g>
<!-- crossmethod&#45;&gt;output -->
<g id="edge19" class="edge">
<title>crossmethod&#45;&gt;output</title>
<path fill="none" stroke="#1b9e77" stroke-width="1.5" d="M455.2,-114.9C436.25,-102.79 414.5,-88.9 394.6,-76.19"/>
<polygon fill="#1b9e77" stroke="#1b9e77" stroke-width="1.5" points="396.36,-73.99 388.11,-72.04 393.35,-78.71 396.36,-73.99"/>
</g>
</g>
</svg>
